<?xml version="1.0" standalone="no"?>
<!DOCTYPE svg PUBLIC "-//W3C//DTD SVG 20010904//EN"
 "http://www.w3.org/TR/2001/REC-SVG-20010904/DTD/svg10.dtd">
<svg version="1.0" xmlns="http://www.w3.org/2000/svg"
 width="640.000000pt" height="640.000000pt" viewBox="0 0 640.000000 640.000000"
 preserveAspectRatio="xMidYMid meet">
<metadata>
Created by potrace 1.14, written by Peter Selinger 2001-2017
</metadata>
<g transform="translate(0.000000,640.000000) scale(0.100000,-0.100000)"
fill="#000000" stroke="none">
<path d="M4898 5517 c-1 -485 -2 -898 -1 -917 0 -19 -4 -111 -9 -205 -6 -93
-11 -183 -12 -200 -2 -43 -27 -38 -45 9 -11 29 -12 42 -3 56 9 15 4 25 -29 61
-33 36 -39 49 -40 88 -2 72 -12 96 -38 93 -17 -1 -21 2 -17 16 4 11 -8 37 -34
70 -21 29 -42 69 -46 88 -4 20 -15 41 -25 47 -11 7 -19 18 -19 26 0 22 -40 81
-56 81 -8 0 -14 -10 -14 -25 0 -23 -2 -24 -25 -13 -18 8 -24 17 -19 30 4 13
-5 30 -30 56 -39 40 -42 48 -24 87 9 21 9 31 0 46 -15 23 -16 59 -2 59 6 0 10
7 10 15 0 20 -16 19 -24 -1 -3 -9 -15 -14 -28 -12 -20 3 -23 9 -23 43 0 37 -2
40 -25 37 -14 -1 -35 -7 -47 -14 -27 -14 -73 3 -73 26 0 8 -6 21 -12 28 -7 8
-20 27 -28 43 -9 17 -25 31 -38 33 -12 2 -22 9 -22 16 0 8 -7 19 -15 26 -10 9
-15 9 -15 1 0 -6 -7 -11 -15 -11 -11 0 -13 8 -8 30 5 26 0 36 -35 69 -32 31
-55 42 -114 56 -40 10 -78 22 -85 27 -7 5 -13 4 -15 -3 -7 -22 -37 -2 -31 20
6 24 -11 27 -65 12 -23 -7 -32 -6 -32 2 0 7 -18 20 -40 29 -39 16 -41 16 -53
-3 -9 -14 -23 -19 -57 -19 -25 0 -51 5 -58 12 -6 6 -23 13 -38 14 -17 2 -47
22 -78 53 -46 45 -56 51 -94 51 -27 0 -60 9 -88 25 -25 14 -60 25 -79 25 -18
0 -37 5 -40 10 -3 6 -17 10 -30 10 -18 0 -24 -6 -27 -27 -2 -21 -11 -28 -43
-37 -24 -7 -44 -20 -49 -33 -10 -20 -11 -20 -58 20 -38 32 -55 40 -84 39 -21
-1 -44 -7 -53 -15 -43 -36 -136 -52 -125 -22 9 23 -49 19 -71 -5 -9 -10 -33
-24 -51 -30 -19 -7 -34 -18 -34 -25 0 -19 -20 -29 -32 -17 -7 7 -20 4 -42 -8
-17 -10 -50 -21 -73 -25 -44 -7 -92 -42 -112 -82 -7 -13 -21 -23 -32 -23 -11
0 -17 5 -14 10 3 6 -3 10 -14 10 -12 0 -21 -7 -21 -15 0 -9 -9 -15 -25 -15
-15 0 -40 -7 -58 -17 -29 -15 -30 -17 -12 -24 11 -4 32 -8 46 -8 15 -1 37 -10
50 -20 19 -16 22 -22 11 -32 -10 -11 -21 -10 -57 3 -45 17 -45 17 -69 -7 -15
-15 -31 -22 -44 -18 -40 10 -122 -63 -122 -109 0 -32 -24 -48 -74 -48 -41 0
-61 -24 -44 -54 20 -36 -46 -57 -85 -26 -31 25 -47 25 -47 2 0 -17 -54 -49
-77 -44 -7 2 -17 -7 -23 -18 -9 -17 -7 -27 9 -54 12 -18 21 -43 21 -54 0 -27
-47 -71 -82 -79 -15 -3 -33 -12 -39 -19 -6 -8 -26 -14 -43 -14 -57 0 -76 -12
-115 -70 -42 -63 -75 -173 -69 -231 3 -31 6 -34 35 -33 34 2 36 -13 5 -48 -19
-22 -38 -23 -50 -2 -6 10 -14 14 -22 9 -9 -6 -10 -26 -5 -79 4 -39 7 -132 6
-207 -1 -111 1 -138 13 -148 9 -7 18 -29 22 -50 4 -20 13 -48 22 -62 12 -21
13 -33 3 -59 -16 -47 -14 -82 9 -140 11 -28 20 -72 20 -99 0 -26 4 -61 9 -77
5 -16 17 -64 26 -106 19 -92 68 -165 116 -175 26 -5 29 -9 24 -32 -8 -41 -9
-114 -1 -139 9 -27 76 -72 108 -72 18 0 29 12 48 52 42 86 107 109 185 65 45
-26 65 -57 65 -106 0 -47 24 -72 61 -64 34 7 39 -12 12 -43 -35 -39 -45 -64
-33 -80 9 -10 9 -26 -1 -65 -13 -49 -13 -52 10 -70 50 -41 98 4 110 101 5 38
12 73 15 78 7 11 66 -7 66 -20 0 -13 37 -9 49 6 8 10 9 26 2 57 -5 24 -7 48
-3 53 4 6 7 38 8 71 1 33 11 93 21 134 16 60 24 76 43 83 13 5 44 23 69 41 76
55 166 97 254 118 44 11 96 -10 99 -39 1 -9 2 -24 3 -32 12 -122 31 -203 58
-257 25 -48 92 -117 139 -142 93 -49 125 -56 283 -56 145 0 152 1 199 28 27
15 54 27 60 27 31 0 77 82 111 195 42 144 60 175 100 175 26 0 78 -49 111
-105 13 -23 33 -82 43 -130 25 -111 56 -173 101 -198 33 -19 51 -25 130 -49
19 -6 100 -14 180 -17 l145 -6 -3 -26 c-1 -15 2 -37 7 -50 9 -23 10 -22 30 21
11 25 21 54 21 65 0 11 7 42 15 69 l15 50 -28 -27 c-15 -15 -33 -27 -40 -27
-7 0 -29 -9 -49 -20 -90 -48 -337 -11 -411 61 -43 42 -81 129 -94 216 -10 63
-10 76 3 84 22 14 27 11 31 -18 3 -26 7 -28 53 -30 28 -1 58 -4 68 -7 9 -2 17
0 17 6 0 5 9 21 20 35 11 14 20 41 20 59 0 39 12 49 39 32 22 -13 55 -84 46
-97 -2 -5 7 -21 20 -37 14 -16 25 -37 25 -46 0 -10 5 -18 11 -18 6 0 9 6 6 13
-3 7 6 31 19 53 13 21 24 47 24 57 0 9 5 17 11 17 6 0 4 7 -5 15 -8 8 -24 15
-36 15 -25 0 -37 25 -20 44 15 19 -18 42 -95 64 -31 10 -56 22 -56 27 1 14 99
24 141 15 91 -21 118 -31 135 -50 18 -20 18 -22 1 -50 -13 -22 -14 -34 -6 -49
5 -11 10 -37 10 -58 0 -21 7 -63 15 -93 8 -30 15 -90 15 -132 0 -43 4 -78 8
-78 5 0 22 30 40 68 55 118 112 159 98 71 -3 -22 -3 -39 1 -39 5 0 26 25 48
56 22 30 50 68 63 84 12 16 50 102 83 192 33 90 72 188 85 218 14 31 24 71 23
92 -2 40 24 83 89 144 29 28 35 40 43 104 10 79 17 93 61 116 64 33 60 173 54
-1825 -3 -999 -8 -1863 -10 -1921 -3 -58 -2 -133 1 -167 l6 -63 758 0 759 0 0
426 0 426 -27 -6 c-73 -16 -123 -18 -138 -6 -12 10 -15 10 -15 -2 0 -15 -47
-21 -152 -20 -32 0 -58 -4 -58 -8 0 -4 -24 -8 -52 -9 -126 -3 -207 -9 -218
-16 -6 -4 -17 -2 -25 5 -10 9 -20 7 -41 -7 -18 -11 -50 -18 -93 -20 -36 -1
-73 -4 -81 -6 -8 -3 -34 -8 -57 -11 -34 -5 -44 -3 -52 11 -6 11 -11 13 -11 5
0 -15 -59 -42 -90 -42 -19 0 -21 5 -18 43 3 36 6 42 24 39 16 -2 23 4 28 23 8
33 32 27 28 -8 -1 -14 3 -29 9 -33 9 -5 10 0 6 15 -3 14 0 24 9 28 24 9 64 -6
65 -25 0 -9 5 -3 10 14 9 33 34 39 63 14 14 -11 19 -11 29 3 15 19 57 32 57
17 0 -17 98 -5 120 15 11 10 26 14 38 10 20 -6 20 -4 13 34 -1 2 -8 -2 -16 -9
-16 -13 -45 -7 -45 10 0 5 20 10 45 10 31 0 44 -4 42 -12 -3 -18 62 -12 83 7
27 24 43 19 36 -11 -6 -24 -6 -25 9 -10 30 29 81 15 69 -20 -3 -11 -2 -14 3
-8 14 19 51 34 67 28 9 -3 24 5 37 20 17 20 25 23 36 14 10 -8 17 -8 25 0 7 7
18 12 26 12 12 0 12 -3 2 -15 -20 -24 4 -44 27 -23 10 8 25 13 33 11 13 -4 13
-3 1 5 -12 9 -12 13 -2 26 16 19 31 12 31 -15 0 -22 13 -25 32 -6 7 8 24 19
37 26 29 16 21 24 -12 12 -19 -7 -28 -6 -37 4 -14 17 7 30 63 40 l37 7 0 844
0 844 -30 0 c-27 0 -30 -3 -30 -30 0 -16 5 -30 11 -30 5 0 7 -5 4 -10 -12 -20
-35 11 -35 47 0 19 5 65 11 104 9 61 9 71 -7 86 -16 16 -17 15 -12 -35 6 -58
0 -64 -23 -26 l-16 26 -7 -26 c-7 -29 -26 -36 -26 -10 0 9 -8 23 -17 30 -17
11 -16 13 11 24 22 8 31 8 36 -1 11 -17 22 6 15 33 -3 13 -1 45 5 72 9 42 8
51 -6 67 -20 22 -80 25 -106 5 -20 -14 -24 -36 -8 -36 6 0 10 -6 10 -12 0 -7
12 -19 27 -25 21 -10 29 -10 35 0 5 7 7 -4 6 -28 -4 -55 -33 -61 -53 -11 -14
34 -35 49 -35 25 0 -6 -8 -8 -19 -4 -10 3 -24 -1 -31 -10 -19 -23 -32 -18 -28
13 3 25 6 27 41 24 28 -3 37 0 37 12 0 9 -7 16 -15 16 -15 0 -21 17 -28 80 -2
19 -6 42 -8 50 -2 8 2 15 10 15 9 0 15 -11 15 -27 2 -29 26 -65 26 -39 0 11 3
11 15 1 8 -7 15 -9 15 -5 0 4 7 2 15 -5 20 -16 45 3 38 29 -3 14 2 20 22 25
25 6 26 8 12 29 -9 14 -11 29 -6 42 12 31 10 95 -2 95 -7 0 -5 10 5 25 21 32
20 52 -1 58 -11 3 -7 5 10 6 31 1 45 24 28 45 -7 8 -11 18 -10 22 4 26 -2 35
-21 29 -17 -5 -20 -2 -20 24 0 33 23 43 34 15 3 -8 10 -12 16 -9 6 4 10 -11
10 -40 0 -49 18 -67 45 -45 8 6 19 9 25 5 6 -4 10 9 10 35 0 38 -1 40 -16 26
-8 -9 -19 -16 -23 -16 -15 0 -33 30 -27 45 3 8 1 15 -4 15 -15 0 -12 46 4 59
11 9 20 9 35 2 28 -15 31 -14 31 14 0 20 -5 25 -24 25 -14 0 -26 6 -29 13 -2
6 -2 2 0 -10 4 -25 -6 -30 -24 -12 -14 14 -47 3 -37 -12 4 -7 1 -10 -7 -7 -8
2 -15 17 -17 31 -3 22 1 27 18 27 12 0 25 10 32 25 6 14 15 25 20 25 4 0 3 9
-4 20 -11 16 -9 23 10 40 24 23 27 35 12 45 -20 12 -9 37 20 48 38 14 39 37 3
37 -21 0 -24 3 -14 9 8 5 20 7 28 4 10 -4 13 7 13 46 0 28 -5 51 -10 51 -7 0
-7 6 0 19 7 13 10 183 9 498 -1 263 -4 470 -6 461 -3 -10 -9 -18 -14 -18 -12
0 -1 43 12 48 15 6 11 269 -3 275 -10 4 -10 6 0 6 7 1 12 15 12 35 0 19 -6 37
-12 39 -10 4 -10 6 0 6 19 1 15 41 -5 41 -17 1 -17 1 -1 11 15 8 17 40 18 333
0 252 -3 325 -12 329 -10 3 -10 7 0 19 9 12 12 53 10 154 l-3 139 -377 3
c-357 2 -377 1 -372 -15 5 -17 5 -17 -9 -1 -13 16 -45 18 -375 18 l-362 0 -2
-883z m452 844 c0 -23 -16 -36 -25 -21 -9 14 1 40 15 40 5 0 10 -9 10 -19z
m218 -18 c6 -18 9 -33 8 -33 -10 0 -36 52 -30 61 8 13 8 12 22 -28z m-128 17
c0 -5 -7 -10 -15 -10 -8 0 -15 5 -15 10 0 6 7 10 15 10 8 0 15 -4 15 -10z
m190 -32 c0 -6 -7 -5 -15 2 -8 7 -15 17 -15 22 0 6 7 5 15 -2 8 -7 15 -17 15
-22z m390 13 c0 -5 -7 -11 -15 -15 -9 -3 -15 0 -15 9 0 8 7 15 15 15 8 0 15
-4 15 -9z m148 -16 c-3 -3 -9 2 -12 12 -6 14 -5 15 5 6 7 -7 10 -15 7 -18z
m197 -4 c8 -14 -10 -22 -30 -15 -13 5 -14 8 -3 15 17 11 26 11 33 0z m-1024
-24 c-1 -12 -15 -9 -19 4 -3 6 1 10 8 8 6 -3 11 -8 11 -12z m9 -43 c0 -8 -4
-12 -10 -9 -5 3 -10 10 -10 16 0 5 5 9 10 9 6 0 10 -7 10 -16z m650 -4 c0 -5
-10 -10 -22 -9 -22 0 -22 1 -3 9 11 5 21 9 23 9 1 1 2 -3 2 -9z m-400 -10 c0
-5 -5 -10 -11 -10 -5 0 -7 5 -4 10 3 6 8 10 11 10 2 0 4 -4 4 -10z m317 4 c-3
-3 -12 -4 -19 -1 -8 3 -5 6 6 6 11 1 17 -2 13 -5z m278 -4 c3 -5 -3 -10 -14
-10 -12 0 -21 5 -21 10 0 6 6 10 14 10 8 0 18 -4 21 -10z m160 0 c3 -5 -1 -10
-9 -10 -8 0 -18 5 -21 10 -3 6 1 10 9 10 8 0 18 -4 21 -10z m-715 -40 c0 -4
-9 -10 -20 -13 -15 -4 -20 0 -20 13 0 13 5 17 20 13 11 -3 20 -9 20 -13z m340
-11 c0 -5 -7 -9 -15 -9 -15 0 -20 12 -9 23 8 8 24 -1 24 -14z m350 11 c0 -5
-2 -10 -4 -10 -3 0 -8 5 -11 10 -3 6 -1 10 4 10 6 0 11 -4 11 -10z m22 -42
c-7 -7 -12 -8 -12 -2 0 14 12 26 19 19 2 -3 -1 -11 -7 -17z m-972 -2 c0 -3 -4
-8 -10 -11 -5 -3 -10 -1 -10 4 0 6 5 11 10 11 6 0 10 -2 10 -4z m665 -26 c3
-5 1 -10 -4 -10 -6 0 -11 5 -11 10 0 6 2 10 4 10 3 0 8 -4 11 -10z m255 -30
c0 -5 -4 -10 -10 -10 -5 0 -10 5 -10 10 0 6 5 10 10 10 6 0 10 -4 10 -10z
m-895 -50 c-3 -5 -10 -10 -16 -10 -5 0 -9 5 -9 10 0 6 7 10 16 10 8 0 12 -4 9
-10z m205 -5 c0 -8 -2 -15 -4 -15 -2 0 -6 7 -10 15 -3 8 -1 15 4 15 6 0 10 -7
10 -15z m300 5 c0 -5 -2 -10 -4 -10 -3 0 -8 5 -11 10 -3 6 -1 10 4 10 6 0 11
-4 11 -10z m-570 -44 c0 -2 -7 -9 -15 -16 -12 -10 -15 -10 -15 4 0 9 7 16 15
16 8 0 15 -2 15 -4z m263 -16 c3 -11 1 -18 -4 -14 -5 3 -9 12 -9 20 0 20 7 17
13 -6z m407 -7 c-1 -24 -2 -26 -11 -10 -5 9 -7 22 -4 27 10 17 15 11 15 -17z
m-530 3 c0 -14 -29 -31 -38 -21 -6 6 18 35 29 35 5 0 9 -6 9 -14z m604 -42 c9
-24 2 -26 -12 -4 -7 11 -8 20 -3 20 5 0 12 -7 15 -16z m184 4 c-6 -18 -28 -21
-28 -4 0 9 7 16 16 16 9 0 14 -5 12 -12z m65 -25 c-7 -3 -13 -9 -13 -14 0 -4
7 -6 15 -3 17 7 21 -11 4 -21 -15 -10 -21 0 -25 41 -2 35 -2 36 14 19 13 -13
14 -19 5 -22z m-123 7 c0 -5 -7 -10 -15 -10 -8 0 -15 5 -15 10 0 6 7 10 15 10
8 0 15 -4 15 -10z m-872 -25 c-3 -3 -9 2 -12 12 -6 14 -5 15 5 6 7 -7 10 -15
7 -18z m701 16 c7 -5 9 -11 5 -14 -5 -3 -15 1 -22 9 -14 16 -5 18 17 5z m-619
-11 c0 -5 -6 -10 -14 -10 -8 0 -18 5 -21 10 -3 6 3 10 14 10 12 0 21 -4 21
-10z m-65 -40 c0 -7 -6 -15 -12 -17 -8 -3 -13 4 -13 17 0 13 5 20 13 18 6 -3
12 -11 12 -18z m600 10 c3 -5 1 -10 -4 -10 -6 0 -11 5 -11 10 0 6 2 10 4 10 3
0 8 -4 11 -10z m-395 -20 c0 -11 -4 -20 -9 -20 -11 0 -22 26 -14 34 12 12 23
5 23 -14z m365 -14 c12 -12 12 -15 0 -20 -8 -3 -15 -4 -15 -2 0 3 -3 11 -6 20
-8 20 3 21 21 2z m65 -6 c0 -5 -7 -10 -16 -10 -8 0 -12 5 -9 10 3 6 10 10 16
10 5 0 9 -4 9 -10z m144 -11 c-3 -5 -10 -7 -15 -3 -5 3 -7 10 -3 15 3 5 10 7
15 3 5 -3 7 -10 3 -15z m-784 -7 c0 -11 -10 -30 -22 -43 -16 -18 -19 -19 -15
-6 4 10 7 30 7 43 0 15 6 24 15 24 8 0 15 -8 15 -18z m65 -90 c-7 -8 -35 7
-35 18 0 6 7 6 20 -2 10 -7 17 -14 15 -16z m325 24 c0 -11 -19 -15 -25 -6 -3
5 1 10 9 10 9 0 16 -2 16 -4z m177 -2 c-3 -3 -12 -4 -19 -1 -8 3 -5 6 6 6 11
1 17 -2 13 -5z m83 -15 c0 -11 -4 -17 -10 -14 -5 3 -10 13 -10 21 0 8 5 14 10
14 6 0 10 -9 10 -21z m-390 -9 c0 -5 -4 -10 -9 -10 -6 0 -13 5 -16 10 -3 6 1
10 9 10 9 0 16 -4 16 -10z m317 -22 c-3 -8 -6 -5 -6 6 -1 11 2 17 5 13 3 -3 4
-12 1 -19z m-572 -17 c3 -5 1 -12 -4 -15 -5 -3 -11 1 -15 9 -6 16 9 21 19 6z
m65 -16 c-7 -8 -17 -12 -22 -9 -6 4 -5 10 3 15 22 14 33 10 19 -6z m35 5 c3
-5 1 -10 -4 -10 -6 0 -11 5 -11 10 0 6 2 10 4 10 3 0 8 -4 11 -10z m835 -2 c0
-7 -4 -19 -9 -27 -7 -11 -11 -10 -20 7 -8 15 -8 22 2 25 21 9 27 8 27 -5z
m-153 -4 c-3 -3 -12 -4 -19 -1 -8 3 -5 6 6 6 11 1 17 -2 13 -5z m-167 -13 c0
-6 -4 -13 -10 -16 -5 -3 -10 1 -10 9 0 9 5 16 10 16 6 0 10 -4 10 -9z m-615
-40 c-9 -16 -25 -3 -18 15 4 10 9 12 15 6 6 -6 7 -15 3 -21z m577 7 c-9 -9
-15 -9 -24 0 -9 9 -7 12 12 12 19 0 21 -3 12 -12z m231 -8 c3 -11 1 -20 -4
-20 -5 0 -9 9 -9 20 0 11 2 20 4 20 2 0 6 -9 9 -20z m-528 -40 c3 -5 1 -10 -4
-10 -6 0 -11 5 -11 10 0 6 2 10 4 10 3 0 8 -4 11 -10z m696 -13 c-13 -13 -26
-3 -16 12 3 6 11 8 17 5 6 -4 6 -10 -1 -17z m-956 4 c3 -5 1 -12 -5 -16 -5 -3
-10 1 -10 9 0 18 6 21 15 7z m-25 -27 c0 -19 -27 -47 -34 -36 -3 5 -2 18 1 30
6 25 33 30 33 6z m66 -49 c0 -24 -4 -35 -13 -35 -10 0 -12 7 -8 19 3 11 1 22
-5 26 -12 8 -4 25 13 25 7 0 12 -15 13 -35z m184 20 c0 -8 -7 -15 -15 -15 -26
0 -18 20 13 29 1 1 2 -6 2 -14z m-103 -1 c-3 -3 -12 -4 -19 -1 -8 3 -5 6 6 6
11 1 17 -2 13 -5z m443 -13 c0 -6 -4 -13 -10 -16 -5 -3 -10 1 -10 9 0 9 5 16
10 16 6 0 10 -4 10 -9z m160 -20 c0 -6 -4 -13 -10 -16 -5 -3 -10 1 -10 9 0 9
5 16 10 16 6 0 10 -4 10 -9z m200 -31 c0 -5 -7 -10 -15 -10 -8 0 -15 5 -15 10
0 6 7 10 15 10 8 0 15 -4 15 -10z m-944 -27 c4 -16 10 -30 14 -33 4 -3 1 -21
-6 -40 l-12 -35 -1 37 c-1 29 -4 36 -16 32 -16 -6 -21 20 -9 50 9 24 23 19 30
-11z m649 18 c3 -5 1 -12 -4 -15 -5 -3 -11 1 -15 9 -6 16 9 21 19 6z m205 -31
c0 -5 -4 -10 -10 -10 -5 0 -10 5 -10 10 0 6 5 10 10 10 6 0 10 -4 10 -10z
m-110 -21 c0 -5 -4 -9 -10 -9 -5 0 -10 7 -10 16 0 8 5 12 10 9 6 -3 10 -10 10
-16z m-620 7 c0 -15 -14 -35 -21 -30 -15 9 -10 34 6 34 8 0 15 -2 15 -4z m127
-18 c-3 -8 -6 -5 -6 6 -1 11 2 17 5 13 3 -3 4 -12 1 -19z m418 12 c-3 -5 -11
-10 -16 -10 -6 0 -7 5 -4 10 3 6 11 10 16 10 6 0 7 -4 4 -10z m-2006 -19 l21
-19 -24 -4 c-26 -5 -46 7 -46 29 0 19 24 16 49 -6z m1915 4 c4 -10 -1 -15 -16
-15 -17 0 -18 2 -8 15 7 8 14 15 15 15 2 0 5 -7 9 -15z m396 -5 c0 -5 -4 -10
-10 -10 -5 0 -10 5 -10 10 0 6 5 10 10 10 6 0 10 -4 10 -10z m-331 -49 c-15
-5 -22 6 -14 19 6 9 10 9 16 -1 5 -8 4 -15 -2 -18z m-39 -16 c0 -8 -4 -15 -9
-15 -13 0 -22 16 -14 24 11 11 23 6 23 -9z m-363 -1 c-3 -3 -12 -4 -19 -1 -8
3 -5 6 6 6 11 1 17 -2 13 -5z m-268 -25 c-11 -6 -11 -12 0 -32 10 -18 10 -34
2 -65 -6 -23 -14 -42 -18 -42 -5 0 -8 31 -8 68 0 64 11 96 29 85 4 -3 2 -9 -5
-14z m316 11 c-3 -5 -13 -10 -21 -10 -8 0 -12 5 -9 10 3 6 13 10 21 10 8 0 12
-4 9 -10z m675 -20 c0 -5 -4 -10 -9 -10 -6 0 -13 5 -16 10 -3 6 1 10 9 10 9 0
16 -4 16 -10z m-690 -46 c0 -8 -4 -12 -10 -9 -5 3 -10 10 -10 16 0 5 5 9 10 9
6 0 10 -7 10 -16z m-3721 -17 c13 -16 5 -27 -21 -27 -20 0 -21 1 -12 24 7 20
18 20 33 3z m3478 -49 c-3 -22 -4 -21 -11 4 -5 16 -5 36 0 45 7 16 8 15 11 -4
3 -13 3 -33 0 -45z m978 52 c3 -5 1 -10 -4 -10 -6 0 -11 5 -11 10 0 6 2 10 4
10 3 0 8 -4 11 -10z m-771 -21 c-6 -11 -24 -2 -24 11 0 5 7 7 15 4 8 -4 12
-10 9 -15z m-94 -5 c0 -8 -4 -12 -10 -9 -5 3 -10 10 -10 16 0 5 5 9 10 9 6 0
10 -7 10 -16z m310 12 c0 -3 -4 -8 -10 -11 -5 -3 -10 -1 -10 4 0 6 5 11 10 11
6 0 10 -2 10 -4z m60 -17 c0 -5 -4 -9 -10 -9 -5 0 -10 7 -10 16 0 8 5 12 10 9
6 -3 10 -10 10 -16z m36 -27 c-11 -10 -15 4 -8 28 l7 25 3 -23 c2 -13 1 -26
-2 -30z m414 39 c0 -5 3 -18 6 -28 6 -16 5 -16 -9 2 -19 23 -21 35 -7 35 6 0
10 -4 10 -9z m-237 -66 c4 -8 2 -17 -3 -20 -6 -4 -10 -4 -10 -1 0 2 -3 11 -6
20 -3 9 -2 16 4 16 5 0 12 -7 15 -15z m-663 -24 c7 -13 7 -22 0 -26 -5 -3 -10
1 -10 10 0 8 -10 20 -22 25 l-23 9 22 0 c12 1 27 -8 33 -18z m595 -1 c3 -5 1
-10 -4 -10 -6 0 -11 5 -11 10 0 6 2 10 4 10 3 0 8 -4 11 -10z m-651 -15 c3 -8
1 -15 -4 -15 -6 0 -10 7 -10 15 0 8 2 15 4 15 2 0 6 -7 10 -15z m-33 -43 c-6
-2 -11 -11 -12 -20 0 -9 -3 -12 -5 -6 -3 6 1 24 7 40 11 25 13 26 17 9 2 -10
-1 -21 -7 -23z m389 8 c0 -5 -4 -10 -10 -10 -5 0 -10 5 -10 10 0 6 5 10 10 10
6 0 10 -4 10 -10z m630 -24 c0 -8 -4 -18 -10 -21 -5 -3 -10 3 -10 14 0 12 5
21 10 21 6 0 10 -6 10 -14z m-925 -36 c8 -13 -4 -50 -16 -50 -5 0 -9 14 -9 30
0 30 13 40 25 20z m275 0 c0 -5 -7 -10 -15 -10 -8 0 -15 5 -15 10 0 6 7 10 15
10 8 0 15 -4 15 -10z m530 -60 c0 -5 -4 -10 -10 -10 -5 0 -10 5 -10 10 0 6 5
10 10 10 6 0 10 -4 10 -10z m-281 -66 c-16 -19 -26 -18 -31 4 -4 15 -1 18 19
14 19 -3 21 -7 12 -18z m-629 -41 c0 -17 -4 -34 -9 -37 -10 -6 -21 62 -13 82
8 22 22 -7 22 -45z m525 -13 c3 -5 1 -10 -4 -10 -6 0 -11 5 -11 10 0 6 2 10 4
10 3 0 8 -4 11 -10z m-465 -39 c0 -6 -4 -13 -10 -16 -5 -3 -10 1 -10 9 0 9 5
16 10 16 6 0 10 -4 10 -9z m680 -11 c0 -5 -4 -10 -10 -10 -5 0 -10 5 -10 10 0
6 5 10 10 10 6 0 10 -4 10 -10z m-460 -26 c0 -8 -4 -12 -10 -9 -5 3 -10 10
-10 16 0 5 5 9 10 9 6 0 10 -7 10 -16z m-215 -24 c-3 -5 -12 -10 -20 -10 -8 0
-17 5 -20 10 -4 6 5 10 20 10 15 0 24 -4 20 -10z m-40 -60 c3 -5 1 -10 -4 -10
-6 0 -11 5 -11 10 0 6 2 10 4 10 3 0 8 -4 11 -10z m-33 -102 c-15 -15 -21 14
-9 42 l11 25 4 -29 c2 -16 -1 -33 -6 -38z m368 7 c0 -9 -6 -12 -15 -9 -8 4
-12 10 -9 15 8 14 24 10 24 -6z m-2892 -110 c26 -9 76 -19 112 -23 54 -6 67
-11 75 -29 10 -23 30 -31 101 -38 25 -3 44 -1 44 5 0 16 37 11 44 -5 4 -11 13
-14 29 -10 15 4 30 1 40 -10 13 -12 31 -15 92 -11 41 3 73 1 70 -4 -8 -13 58
-60 83 -60 12 0 22 -5 22 -11 0 -6 7 -9 15 -5 8 3 15 1 15 -5 0 -6 5 -7 10 -4
6 4 24 -1 42 -9 39 -20 44 -20 28 -1 -10 13 -9 15 8 15 16 0 20 -6 19 -27 -1
-19 3 -28 16 -31 11 -2 17 3 18 15 1 16 2 17 6 1 5 -20 14 -23 30 -7 7 7 15 2
27 -16 10 -15 20 -24 23 -22 3 3 15 -6 27 -20 20 -23 30 -26 106 -29 84 -2 85
-3 113 -38 19 -23 37 -36 53 -36 17 0 24 -6 24 -20 0 -11 9 -35 19 -54 11 -18
22 -47 24 -62 3 -16 12 -56 20 -89 21 -84 29 -205 14 -205 -9 0 -9 -2 0 -8 8
-5 15 -44 19 -97 5 -66 4 -86 -4 -81 -7 4 -12 13 -12 21 0 7 -9 16 -19 20 -11
3 -21 12 -24 19 -3 8 -19 21 -36 30 -17 9 -45 23 -62 32 -47 25 -239 16 -295
-13 -61 -32 -99 -68 -101 -94 -1 -13 -7 -33 -14 -45 -10 -20 -19 -22 -90 -22
-44 0 -79 4 -79 8 0 4 -18 15 -40 25 -22 10 -40 22 -40 26 0 5 -11 11 -25 15
-16 4 -27 16 -31 33 -13 53 -64 86 -182 118 -105 28 -325 8 -373 -33 -8 -8
-25 -14 -37 -14 -12 0 -32 -10 -43 -21 -24 -24 -143 -59 -200 -59 -19 0 -39
-4 -45 -9 -10 -10 -141 -61 -209 -81 -22 -7 -48 -16 -57 -21 -27 -14 -74 -11
-88 6 -14 17 -7 57 25 129 12 28 28 75 36 105 9 35 21 59 36 68 18 12 21 19
12 29 -13 16 9 74 28 74 9 0 13 16 13 47 0 52 18 114 37 126 8 5 13 29 13 60
0 29 4 59 10 67 6 9 5 17 -3 22 -9 6 -9 10 -1 16 6 4 13 29 16 55 6 52 28 84
62 89 13 2 22 11 24 26 2 15 9 22 17 18 7 -2 19 2 26 10 22 27 51 38 60 23 7
-11 9 -10 9 3 0 10 14 22 35 29 22 8 35 20 35 31 0 15 8 18 43 18 32 0 49 6
63 21 18 20 48 37 67 38 5 1 29 -6 55 -14z m2532 -5 c0 -5 -5 -10 -11 -10 -5
0 -7 5 -4 10 3 6 8 10 11 10 2 0 4 -4 4 -10z m-30 -85 c0 -8 -9 -15 -20 -15
-20 0 -26 11 -13 23 12 13 33 7 33 -8z m870 -245 c0 -29 -73 -42 -84 -15 -9
25 4 44 32 47 32 4 52 -8 52 -32z m-1295 -49 c3 -5 1 -12 -5 -16 -5 -3 -10 1
-10 9 0 18 6 21 15 7z m1413 -40 c-7 -11 -19 -21 -27 -21 -11 0 -11 4 2 18 10
10 17 25 17 32 0 10 3 11 11 3 8 -8 7 -17 -3 -32z m38 2 c-10 -10 -19 5 -10
18 6 11 8 11 12 0 2 -7 1 -15 -2 -18z m-1006 7 c0 -5 -4 -10 -10 -10 -5 0 -10
5 -10 10 0 6 5 10 10 10 6 0 10 -4 10 -10z m70 -17 c0 -15 1 -15 18 0 20 18
42 22 42 8 0 -11 -59 -33 -71 -25 -12 7 -11 34 1 34 6 0 10 -7 10 -17z m760
-93 c0 -5 -7 -10 -16 -10 -8 0 -12 5 -9 10 3 6 10 10 16 10 5 0 9 -4 9 -10z
m-484 -27 c-10 -10 -19 5 -10 18 6 11 8 11 12 0 2 -7 1 -15 -2 -18z m554 0 c0
-9 7 -25 17 -35 15 -17 14 -18 -19 -18 -33 0 -36 -3 -42 -36 -4 -19 -14 -38
-22 -41 -25 -9 -27 4 -4 27 17 17 19 24 9 36 -9 11 -8 14 5 14 10 0 16 8 16
21 0 28 19 61 31 54 5 -4 9 -13 9 -22z m92 -30 c14 -32 23 -62 19 -68 -3 -5
-7 2 -9 18 -2 19 -9 27 -23 27 -12 0 -23 10 -29 26 -29 75 7 72 42 -3z m-945
34 c4 -8 16 -17 26 -20 10 -4 15 -11 12 -17 -4 -6 -11 -8 -16 -4 -6 3 -13 -3
-16 -15 -7 -27 -13 -26 -42 5 -13 14 -30 23 -37 20 -15 -6 -38 27 -27 38 12
12 92 6 100 -7z m113 3 c0 -5 -5 -10 -11 -10 -5 0 -7 5 -4 10 3 6 8 10 11 10
2 0 4 -4 4 -10z m57 -16 c-9 -9 -28 6 -21 18 4 6 10 6 17 -1 6 -6 8 -13 4 -17z
m93 -5 c0 -10 -4 -19 -10 -19 -5 0 -10 12 -10 26 0 14 4 23 10 19 6 -3 10 -15
10 -26z m425 21 c3 -5 -3 -10 -14 -10 -12 0 -21 5 -21 10 0 6 6 10 14 10 8 0
18 -4 21 -10z m-125 -10 c0 -5 -4 -10 -9 -10 -5 0 -16 -3 -25 -6 -11 -4 -16
-1 -16 10 0 10 9 16 25 16 14 0 25 -4 25 -10z m-345 -60 c-11 -17 -32 13 -27
38 l5 25 14 -27 c8 -14 11 -31 8 -36z m188 25 c-6 -17 -25 -15 -31 3 -2 7 5
12 17 12 14 0 19 -5 14 -15z m60 -2 c3 -5 -1 -14 -9 -21 -12 -11 -14 -9 -14 8
0 20 14 27 23 13z m24 -53 c-1 -24 -7 -40 -14 -40 -7 0 -13 6 -13 13 0 11 22
67 27 67 0 0 0 -18 0 -40z m453 -47 c0 -23 -4 -44 -9 -47 -14 -9 -28 37 -23
82 4 39 6 41 18 25 7 -10 14 -37 14 -60z m-760 32 c0 -11 8 -13 30 -8 19 3 30
1 30 -6 0 -6 -13 -11 -30 -11 -16 0 -30 -4 -30 -10 0 -5 -4 -10 -10 -10 -5 0
-10 14 -10 30 0 17 5 30 10 30 6 0 10 -7 10 -15z m410 7 c0 -11 -37 -41 -44
-35 -8 8 17 43 31 43 7 0 13 -3 13 -8z m-630 -6 c0 -2 -3 -11 -6 -20 -9 -23
-24 -20 -24 4 0 11 7 20 15 20 8 0 15 -2 15 -4z m700 -5 c0 -6 -4 -13 -10 -16
-5 -3 -10 1 -10 9 0 9 5 16 10 16 6 0 10 -4 10 -9z m-640 -42 c0 -27 -17 -23
-22 5 -4 17 -1 23 9 19 7 -3 13 -14 13 -24z m855 -1 c6 -6 -18 -58 -27 -58 -4
0 -5 7 -2 15 8 19 -23 32 -39 16 -6 -6 -15 -11 -19 -11 -12 0 -10 38 3 42 15
5 78 2 84 -4z m-265 -17 c0 -12 -20 -25 -27 -18 -7 7 6 27 18 27 5 0 9 -4 9
-9z m-380 -27 c0 -8 -5 -12 -10 -9 -6 4 -8 11 -5 16 9 14 15 11 15 -7z m-166
-40 c9 -36 -10 -56 -29 -31 -15 21 -9 57 10 57 7 0 16 -12 19 -26z m79 19 c-7
-2 -19 -2 -25 0 -7 3 -2 5 12 5 14 0 19 -2 13 -5z m437 -27 c0 -8 -4 -18 -10
-21 -5 -3 -10 3 -10 14 0 12 5 21 10 21 6 0 10 -6 10 -14z m-605 -26 c3 -6 0
-13 -8 -16 -12 -4 -14 -19 -10 -65 3 -39 0 -65 -8 -75 -19 -23 -31 -16 -25 14
14 61 15 117 3 124 -9 6 -8 10 3 18 19 13 37 13 45 0z m665 -10 c0 -5 -7 -10
-16 -10 -8 0 -12 5 -9 10 3 6 10 10 16 10 5 0 9 -4 9 -10z m200 -13 c0 -2 -10
-12 -22 -23 l-23 -19 19 23 c18 21 26 27 26 19z m-80 -37 c0 -5 -4 -10 -10
-10 -5 0 -10 5 -10 10 0 6 5 10 10 10 6 0 10 -4 10 -10z m150 6 c0 -2 3 -11 6
-19 4 -12 0 -14 -15 -10 -12 3 -28 0 -36 -7 -9 -7 -19 -10 -23 -6 -9 9 35 46
54 46 8 0 14 -2 14 -4z m-890 -15 c0 -6 -4 -13 -10 -16 -5 -3 -10 1 -10 9 0 9
5 16 10 16 6 0 10 -4 10 -9z m227 -23 c-3 -7 -5 -2 -5 12 0 14 2 19 5 13 2 -7
2 -19 0 -25z m153 22 c0 -5 -5 -10 -11 -10 -5 0 -7 5 -4 10 3 6 8 10 11 10 2
0 4 -4 4 -10z m336 -76 c-6 -22 -9 -25 -17 -13 -5 7 -9 24 -9 37 0 13 -6 22
-15 22 -16 0 -20 12 -8 24 4 3 18 -4 31 -18 19 -19 23 -30 18 -52z m29 56 c3
-5 -1 -10 -9 -10 -9 0 -16 5 -16 10 0 6 4 10 9 10 6 0 13 -4 16 -10z m-705
-41 c0 -24 -4 -38 -10 -34 -5 3 -10 17 -10 31 0 14 -4 23 -9 20 -5 -3 -7 -38
-5 -78 2 -62 1 -69 -8 -45 -7 15 -15 27 -20 27 -11 0 -30 -39 -24 -49 3 -4 -1
-17 -9 -27 -13 -17 -14 -13 -15 41 0 54 3 61 25 71 16 8 25 8 28 1 1 -5 3 6 4
26 1 44 9 57 34 57 16 0 19 -7 19 -41z m100 19 c-1 -17 -28 -53 -35 -46 -8 7
16 58 27 58 4 0 8 -6 8 -12z m50 -8 c0 -11 -4 -20 -10 -20 -5 0 -10 9 -10 20
0 11 5 20 10 20 6 0 10 -9 10 -20z m150 4 c0 -8 -4 -12 -10 -9 -5 3 -10 10
-10 16 0 5 5 9 10 9 6 0 10 -7 10 -16z m220 -4 c0 -5 -4 -10 -10 -10 -5 0 -10
5 -10 10 0 6 5 10 10 10 6 0 10 -4 10 -10z m-60 -30 c0 -5 -4 -10 -10 -10 -5
0 -10 5 -10 10 0 6 5 10 10 10 6 0 10 -4 10 -10z m-2882 -22 c45 -11 56 -27
20 -30 -59 -4 -76 -6 -114 -17 -22 -6 -49 -20 -59 -31 -13 -15 -31 -20 -66
-20 -42 0 -53 -5 -89 -39 -36 -34 -41 -44 -38 -77 3 -41 32 -69 47 -45 6 8 17
11 32 6 13 -3 19 -3 14 2 -14 11 -17 55 -5 73 9 13 11 13 20 0 5 -8 10 -24 10
-35 0 -34 27 -62 65 -68 31 -5 42 -1 71 25 31 28 34 36 34 86 0 54 0 54 27 47
31 -7 82 -57 64 -63 -13 -4 -15 -42 -2 -42 5 0 11 5 13 11 2 7 12 7 31 0 32
-13 27 -44 -7 -39 -25 3 -76 -26 -76 -43 0 -6 7 -8 15 -5 9 3 18 -1 21 -8 3
-8 14 -12 24 -9 12 3 22 -3 29 -16 14 -26 44 -28 39 -3 -2 10 -11 16 -21 14
-9 -2 -17 2 -17 8 0 15 61 70 77 70 7 0 13 5 13 11 0 7 11 9 28 6 58 -12 65
-12 69 0 3 7 -7 24 -22 37 -22 21 -26 30 -20 55 5 23 3 33 -9 37 -9 3 -16 12
-16 19 0 14 -49 40 -97 50 -18 4 -33 11 -33 16 0 14 69 11 135 -6 161 -41 214
-106 144 -178 -56 -57 -71 -105 -67 -215 1 -53 -1 -103 -6 -110 -16 -27 -154
-62 -242 -62 -67 0 -219 27 -258 45 -82 39 -123 104 -144 225 -25 143 -20 231
16 266 9 10 22 27 27 38 10 19 20 21 108 22 53 0 99 3 103 7 7 7 46 2 112 -15z
m2766 -6 c8 -13 -5 -52 -15 -46 -12 7 -12 54 0 54 6 0 12 -4 15 -8z m-304 -6
c0 -3 -4 -8 -10 -11 -5 -3 -10 -1 -10 4 0 6 5 11 10 11 6 0 10 -2 10 -4z m810
-11 c0 -8 -6 -15 -14 -15 -8 0 -16 7 -20 15 -4 10 1 15 14 15 11 0 20 -7 20
-15z m-722 -12 c-5 -25 -28 -28 -28 -4 0 12 6 21 16 21 9 0 14 -7 12 -17z
m537 -24 c-5 -14 -2 -25 6 -30 11 -7 11 -9 -1 -9 -30 0 -43 16 -31 39 15 28
34 28 26 0z m55 14 c-1 -18 -18 -35 -24 -24 -4 6 -4 16 -1 21 7 12 25 13 25 3z
m-696 -38 c5 -22 4 -26 -4 -15 -5 8 -10 24 -10 34 0 26 6 18 14 -19z m153 3
c-3 -7 -5 -2 -5 12 0 14 2 19 5 13 2 -7 2 -19 0 -25z m323 13 c0 -11 5 -21 12
-23 6 -2 8 -9 4 -16 -10 -16 -49 25 -42 44 8 21 26 17 26 -5z m-63 -13 c-3 -8
-6 -5 -6 6 -1 11 2 17 5 13 3 -3 4 -12 1 -19z m-337 2 c0 -5 11 -10 25 -10 20
0 25 -5 25 -24 0 -14 -5 -28 -10 -31 -19 -12 -95 48 -85 66 8 12 45 12 45 -1z
m505 -20 c-3 -5 -12 -10 -20 -10 -8 0 -17 5 -20 10 -4 6 5 10 20 10 15 0 24
-4 20 -10z m-610 -9 c8 -14 -13 -55 -36 -69 -16 -10 -19 -9 -19 3 0 8 7 15 15
15 11 0 13 8 9 30 -5 23 -3 30 9 30 9 0 18 -4 22 -9z m710 -59 c-9 -2 -22 2
-30 8 -11 9 -15 9 -15 1 0 -6 -4 -11 -9 -11 -5 0 -4 13 2 30 l11 30 29 -28
c23 -22 25 -28 12 -30z m35 48 c0 -5 -5 -10 -11 -10 -5 0 -7 5 -4 10 3 6 8 10
11 10 2 0 4 -4 4 -10z m-860 -44 c0 -8 -4 -18 -10 -21 -5 -3 -10 3 -10 14 0
12 5 21 10 21 6 0 10 -6 10 -14z m208 2 c7 -7 11 -26 11 -42 l-2 -31 -4 28
c-3 16 -11 31 -19 34 -15 5 -20 23 -6 23 4 0 13 -5 20 -12z m-158 -28 c0 -11
-4 -20 -10 -20 -5 0 -10 9 -10 20 0 11 5 20 10 20 6 0 10 -9 10 -20z m103 -9
c13 -22 14 -31 5 -37 -6 -4 -14 -2 -16 4 -2 7 -10 12 -17 12 -18 0 -28 17 -21
35 9 24 30 17 49 -14z m547 10 c0 -10 7 -22 16 -25 14 -6 11 -26 -4 -26 -8 0
-42 53 -42 64 0 3 7 6 15 6 8 0 15 -9 15 -19z m-73 -23 c-3 -8 -6 -5 -6 6 -1
11 2 17 5 13 3 -3 4 -12 1 -19z m-627 -13 c0 -8 -4 -15 -10 -15 -5 0 -10 7
-10 15 0 8 5 15 10 15 6 0 10 -7 10 -15z m127 -21 c9 -25 -13 -40 -26 -16 -10
19 -6 32 11 32 5 0 11 -7 15 -16z m730 -15 c1 -14 0 -17 -3 -6 -3 9 -10 17
-15 17 -5 0 -9 5 -9 11 0 22 25 2 27 -22z m-777 -8 c0 -10 7 -24 15 -31 8 -7
13 -15 11 -19 -3 -4 4 -12 15 -19 11 -7 19 -8 19 -2 0 5 12 10 28 10 21 0 30
-7 41 -31 17 -39 7 -48 -22 -21 l-23 21 -12 -20 c-8 -12 -12 -22 -10 -22 2 -1
13 -8 25 -14 13 -7 30 -13 38 -13 8 0 15 -7 15 -15 0 -12 -4 -13 -19 -5 -12 6
-35 7 -58 2 -32 -7 -39 -12 -41 -36 -3 -25 -1 -28 17 -23 14 3 21 0 21 -10 0
-9 -6 -13 -15 -10 -8 4 -22 -4 -34 -18 -10 -14 -22 -25 -26 -25 -4 0 -2 7 6
16 10 13 10 20 -3 42 -21 36 -32 102 -18 102 7 0 9 8 4 23 -11 33 -11 121 1
129 17 13 25 9 25 -11z m588 1 c2 -7 -7 -12 -22 -12 -27 0 -35 15 -13 23 17 7
30 3 35 -11z m252 3 c0 -8 -4 -15 -10 -15 -5 0 -10 7 -10 15 0 8 5 15 10 15 6
0 10 -7 10 -15z m-182 -69 c2 -42 0 -56 -8 -51 -7 4 -10 18 -7 31 2 13 0 25
-4 25 -5 1 -13 3 -19 4 -5 1 -20 3 -32 4 -23 2 -23 2 2 14 14 6 29 17 33 25
17 27 32 4 35 -52z m-557 31 c-13 -13 -26 -3 -16 12 3 6 11 8 17 5 6 -4 6 -10
-1 -17z m474 -57 c14 0 25 -6 25 -13 0 -21 -10 -27 -29 -17 -9 5 -25 11 -36
15 -14 4 -16 8 -7 14 10 6 10 11 -2 21 -21 16 -46 6 -46 -20 0 -11 -4 -20 -10
-20 -5 0 -10 11 -10 25 0 16 6 25 15 25 9 0 21 12 27 26 l12 26 18 -41 c14
-33 22 -41 43 -41z m-643 18 c-5 -21 -6 -21 -12 -2 -8 21 -3 37 10 29 4 -3 6
-15 2 -27z m466 14 c-10 -2 -18 -9 -18 -15 0 -8 -3 -8 -11 0 -17 17 -2 32 24
25 18 -5 19 -7 5 -10z m-138 -11 c0 -17 -18 -21 -24 -6 -3 9 0 15 9 15 8 0 15
-4 15 -9z m38 -71 c-13 -27 -26 -50 -30 -50 -17 0 -7 62 14 95 34 51 45 19 16
-45z m-588 36 c0 -11 -19 -15 -25 -6 -3 5 1 10 9 10 9 0 16 -2 16 -4z m950
-51 c0 -8 -4 -15 -10 -15 -5 0 -10 7 -10 15 0 8 5 15 10 15 6 0 10 -7 10 -15z
m-720 -66 c0 -20 -4 -29 -12 -26 -7 2 -13 9 -12 15 1 7 2 21 3 33 2 31 21 12
21 -22z m506 14 c19 -25 17 -43 -4 -43 -28 0 -43 20 -31 42 12 22 18 23 35 1z
m-361 -3 c3 -5 -1 -10 -9 -10 -9 0 -16 5 -16 10 0 6 4 10 9 10 6 0 13 -4 16
-10z m55 -34 c0 -9 -7 -12 -21 -9 -16 4 -17 8 -7 14 19 13 28 11 28 -5z m185
-6 c0 -7 -6 -15 -12 -17 -8 -3 -13 4 -13 17 0 13 5 20 13 18 6 -3 12 -11 12
-18z m236 0 c10 0 19 -4 19 -10 0 -12 -30 -13 -49 -1 -8 5 -10 14 -5 22 6 10
9 10 12 1 2 -7 12 -12 23 -12z m86 -7 c2 -6 -3 -13 -12 -16 -10 -5 -15 0 -15
14 0 21 21 22 27 2z m-703 -34 c12 -15 14 -24 7 -28 -15 -9 -16 -79 -3 -113 9
-22 9 -26 -4 -21 -10 4 -12 0 -8 -11 3 -9 12 -16 20 -16 8 0 14 -8 14 -17 0
-14 -2 -15 -9 -5 -7 11 -9 11 -14 -2 -4 -10 -1 -16 9 -16 11 0 14 -6 10 -16
-3 -9 -6 -27 -6 -40 0 -15 -6 -24 -16 -24 -14 0 -16 -9 -12 -55 5 -57 -3 -75
-25 -56 -8 6 -13 39 -12 93 0 75 2 83 18 80 15 -3 17 1 12 20 -4 13 -12 26
-16 29 -14 8 -19 192 -7 206 14 18 21 16 42 -8z m112 -36 c-14 -14 -23 4 -13
27 l10 25 5 -23 c2 -13 1 -26 -2 -29z m369 37 c4 -6 -6 -10 -22 -10 -22 0 -25
2 -13 10 19 12 27 12 35 0z m-267 -22 c-6 -18 -25 -20 -31 -3 -5 10 0 15 14
15 12 0 19 -5 17 -12z m139 6 c-3 -3 -12 -4 -19 -1 -8 3 -5 6 6 6 11 1 17 -2
13 -5z m43 -9 c0 -8 -4 -15 -9 -15 -5 0 -11 7 -15 15 -3 9 0 15 9 15 8 0 15
-7 15 -15z m250 -16 c0 -17 -4 -28 -10 -24 -5 3 -10 17 -10 31 0 13 5 24 10
24 6 0 10 -14 10 -31z m-590 1 c0 -5 -4 -10 -10 -10 -5 0 -10 5 -10 10 0 6 5
10 10 10 6 0 10 -4 10 -10z m480 1 c0 -10 -30 -24 -37 -17 -3 3 -2 9 2 15 8
13 35 15 35 2z m-180 -28 c11 -14 19 -31 17 -37 -6 -19 -22 -16 -32 6 -16 37
-41 34 -55 -6 -8 -26 -17 -36 -32 -36 -12 0 -30 -7 -40 -17 -17 -15 -18 -15
-18 15 0 25 3 29 20 25 12 -3 22 1 26 11 3 9 12 16 20 16 8 0 14 5 14 11 0 14
30 38 47 39 6 0 21 -12 33 -27z m390 17 c0 -12 -28 -25 -36 -17 -9 9 6 27 22
27 8 0 14 -5 14 -10z m-603 -32 c-3 -7 -5 -2 -5 12 0 14 2 19 5 13 2 -7 2 -19
0 -25z m553 23 c0 -17 -18 -21 -24 -6 -3 9 0 15 9 15 8 0 15 -4 15 -9z m-291
-75 c-9 -8 -10 -5 -5 14 3 14 7 34 7 45 1 11 4 5 6 -14 3 -19 -1 -39 -8 -45z
m-306 47 c-7 -2 -19 -2 -25 0 -7 3 -2 5 12 5 14 0 19 -2 13 -5z m-43 -22 c0
-10 -7 -24 -15 -31 -13 -11 -15 -8 -15 19 0 21 5 31 15 31 8 0 15 -8 15 -19z
m560 0 c0 -11 -4 -23 -10 -26 -5 -3 -10 3 -10 14 0 10 -6 22 -12 24 -7 3 -3 6
10 6 15 1 22 -5 22 -18z m60 -1 c0 -11 -7 -20 -15 -20 -15 0 -21 21 -8 33 12
13 23 7 23 -13z m92 -34 c-6 -20 -6 -20 -12 4 -8 29 -1 48 10 30 4 -7 5 -22 2
-34z m-652 23 c0 -17 -20 -49 -30 -49 -14 0 -12 34 2 48 15 15 28 15 28 1z
m210 -14 c0 -8 -4 -15 -10 -15 -5 0 -10 7 -10 15 0 8 5 15 10 15 6 0 10 -7 10
-15z m-190 -18 c0 -7 14 -23 30 -35 17 -13 30 -29 30 -37 0 -11 -5 -11 -30 1
-16 9 -30 22 -30 30 0 8 -4 14 -10 14 -5 0 -10 9 -10 20 0 11 5 20 10 20 6 0
10 -6 10 -13z m460 -13 c0 -8 -5 -12 -10 -9 -6 4 -8 11 -5 16 9 14 15 11 15
-7z m-220 2 c0 -3 -4 -8 -10 -11 -5 -3 -10 -1 -10 4 0 6 5 11 10 11 6 0 10 -2
10 -4z m150 -10 c0 -15 -14 -35 -21 -30 -15 9 -10 34 6 34 8 0 15 -2 15 -4z
m240 -12 c0 -8 -4 -12 -10 -9 -5 3 -10 10 -10 16 0 5 5 9 10 9 6 0 10 -7 10
-16z m118 -1 c-5 -25 -28 -28 -28 -4 0 12 6 21 16 21 9 0 14 -7 12 -17z m-765
-33 c3 -11 1 -23 -4 -26 -5 -3 -9 6 -9 20 0 31 6 34 13 6z m447 6 c0 -26 20
-28 29 -4 l8 23 8 -25 c4 -14 12 -28 17 -31 13 -8 -59 -22 -72 -14 -13 8 -13
65 0 65 6 0 10 -6 10 -14z m395 7 c15 -5 15 -8 -6 -24 -21 -16 -21 -19 -6 -19
10 0 16 -4 12 -10 -4 -6 -15 -5 -30 2 -24 11 -24 34 -1 50 13 9 11 9 31 1z
m-678 -25 c-3 -8 -6 -5 -6 6 -1 11 2 17 5 13 3 -3 4 -12 1 -19z m233 -23 c0
-8 -4 -15 -9 -15 -13 0 -22 16 -14 24 11 11 23 6 23 -9z m-448 -50 c-5 -72
-22 -72 -19 0 1 30 7 55 12 55 6 0 9 -23 7 -55z m221 35 c3 -11 1 -20 -4 -20
-5 0 -9 7 -9 16 0 12 -7 15 -25 12 -14 -3 -25 -1 -25 3 0 5 13 9 29 9 20 0 30
-6 34 -20z m-153 -29 c0 -10 -3 -21 -6 -24 -9 -8 -45 33 -39 43 9 14 45 -2 45
-19z m660 8 c0 -12 8 -23 20 -26 11 -3 20 -9 20 -13 0 -13 -42 2 -62 22 -24
24 -23 38 2 38 14 0 20 -7 20 -21z m-255 1 c3 -5 -1 -10 -9 -10 -9 0 -16 5
-16 10 0 6 4 10 9 10 6 0 13 -4 16 -10z m196 -3 c-1 -4 -1 -15 -1 -24 0 -15
-2 -16 -10 -3 -13 20 -13 43 1 38 6 -2 10 -7 10 -11z m259 3 c0 -5 -2 -10 -4
-10 -3 0 -8 5 -11 10 -3 6 -1 10 4 10 6 0 11 -4 11 -10z m-630 -25 c0 -8 -7
-15 -15 -15 -13 0 -14 3 -3 15 16 18 18 18 18 0z m210 -6 c0 -5 -4 -9 -10 -9
-5 0 -10 7 -10 16 0 8 5 12 10 9 6 -3 10 -10 10 -16z m-355 1 c3 -5 -1 -10 -9
-10 -9 0 -16 5 -16 10 0 6 4 10 9 10 6 0 13 -4 16 -10z m289 -15 c-7 -16 -24
-21 -24 -6 0 8 7 13 27 20 1 1 0 -6 -3 -14z m-474 -5 c0 -5 -4 -10 -10 -10 -5
0 -10 5 -10 10 0 6 5 10 10 10 6 0 10 -4 10 -10z m850 -10 c0 -11 -2 -20 -4
-20 -2 0 -6 9 -9 20 -3 11 -1 20 4 20 5 0 9 -9 9 -20z m-693 -17 c6 -17 -42
-68 -51 -55 -4 7 -1 12 8 12 10 0 13 6 10 15 -4 8 -3 22 0 31 6 17 27 15 33
-3z m423 3 c0 -8 -4 -18 -10 -21 -5 -3 -10 -16 -10 -28 0 -16 -3 -18 -12 -9
-9 9 -9 15 0 24 7 7 12 20 12 30 0 10 5 18 10 18 6 0 10 -6 10 -14z m-550 -22
c0 -8 -5 -12 -10 -9 -6 4 -8 11 -5 16 9 14 15 11 15 -7z m45 7 c3 -5 0 -21 -6
-35 -9 -18 -9 -29 -1 -39 10 -12 -1 -48 -11 -37 -8 8 -16 108 -9 114 8 9 20 7
27 -3z m412 -23 c-3 -8 -6 -5 -6 6 -1 11 2 17 5 13 3 -3 4 -12 1 -19z m473 12
c0 -5 -2 -10 -4 -10 -3 0 -8 5 -11 10 -3 6 -1 10 4 10 6 0 11 -4 11 -10z
m-117 -20 c8 0 7 -4 -1 -12 -9 -9 -16 -8 -30 6 -16 18 -16 19 1 12 10 -3 24
-6 30 -6z m-837 -39 c-8 -11 -8 -15 2 -18 17 -6 15 -40 -4 -47 -22 -9 -24 -8
-24 9 0 8 5 15 11 15 8 0 8 4 0 14 -7 8 -9 25 -5 40 5 20 9 23 19 13 10 -9 10
-15 1 -26z m894 29 c0 -5 -4 -10 -10 -10 -5 0 -10 5 -10 10 0 6 5 10 10 10 6
0 10 -4 10 -10z m-146 -20 c35 -13 33 -30 -4 -30 -23 0 -30 4 -30 20 0 23 0
23 34 10z m187 -13 c-13 -13 -26 -3 -16 12 3 6 11 8 17 5 6 -4 6 -10 -1 -17z
m69 9 c0 -3 -4 -8 -10 -11 -5 -3 -10 -1 -10 4 0 6 5 11 10 11 6 0 10 -2 10 -4z
m-1055 -38 c-9 -40 -13 -48 -26 -48 -12 0 -12 22 1 54 14 38 33 33 25 -6z
m145 2 c0 -5 -4 -10 -10 -10 -5 0 -10 5 -10 10 0 6 5 10 10 10 6 0 10 -4 10
-10z m560 -9 c0 -11 -4 -22 -9 -25 -11 -7 -20 14 -13 32 7 19 22 14 22 -7z
m-480 -32 c0 -5 -4 -9 -10 -9 -5 0 -10 7 -10 16 0 8 5 12 10 9 6 -3 10 -10 10
-16z m740 7 c0 -3 -4 -8 -10 -11 -5 -3 -10 -1 -10 4 0 6 5 11 10 11 6 0 10 -2
10 -4z m60 -26 c0 -19 -18 -19 -23 -1 -3 14 -1 18 9 14 8 -3 14 -9 14 -13z
m-837 -20 c6 -24 -8 -36 -17 -14 -8 22 -7 34 3 34 5 0 11 -9 14 -20z m-49 -6
c3 -8 2 -12 -4 -9 -6 3 -10 10 -10 16 0 14 7 11 14 -7z m515 -19 c-7 -7 -13
-5 -19 5 -15 24 -11 31 10 18 13 -9 16 -16 9 -23z m283 -17 c4 -41 -4 -59 -27
-57 -5 0 -4 3 3 6 19 7 15 70 -5 82 -16 9 -16 10 3 11 18 0 23 -7 26 -42z
m-88 17 c-4 -8 -7 -15 -9 -15 -2 0 -5 7 -9 15 -3 9 0 15 9 15 9 0 12 -6 9 -15z
m127 -38 c-8 -8 -11 -7 -11 4 0 20 13 34 18 19 3 -7 -1 -17 -7 -23z m65 1 c9
-28 11 -59 5 -115 0 -7 -5 -13 -10 -13 -14 0 -21 58 -10 87 8 21 7 28 -6 35
-18 11 -20 38 -2 38 7 0 18 -15 23 -32z m-826 -19 c0 -5 -4 -9 -10 -9 -5 0
-10 7 -10 16 0 8 5 12 10 9 6 -3 10 -10 10 -16z m-174 -25 c-5 -13 -9 -14 -21
-4 -19 16 -19 31 0 24 9 -4 15 0 16 7 0 11 2 11 6 1 3 -7 2 -20 -1 -28z m29
26 c3 -5 1 -10 -4 -10 -6 0 -11 5 -11 10 0 6 2 10 4 10 3 0 8 -4 11 -10z
m-298 -41 c12 -11 13 -35 7 -148 -3 -75 -11 -144 -16 -153 -12 -24 -41 -23
-63 2 -15 17 -18 40 -20 148 -2 171 -1 176 42 169 19 -4 41 -12 50 -18z m928
-7 c0 -18 -20 -15 -23 4 -3 10 1 15 10 12 7 -3 13 -10 13 -16z m-639 -15 c8 3
14 -1 14 -11 0 -9 -7 -19 -15 -22 -8 -4 -15 -13 -15 -21 0 -10 -6 -13 -16 -9
-9 3 -20 6 -25 6 -14 0 -11 18 7 46 11 16 20 22 27 15 5 -5 16 -7 23 -4z m884
3 c0 -5 -4 -10 -10 -10 -5 0 -10 5 -10 10 0 6 5 10 10 10 6 0 10 -4 10 -10z
m-300 -45 c0 -8 -4 -15 -10 -15 -5 0 -10 7 -10 15 0 8 5 15 10 15 6 0 10 -7
10 -15z m-140 -15 c0 -5 -2 -10 -4 -10 -3 0 -8 5 -11 10 -3 6 -1 10 4 10 6 0
11 -4 11 -10z m-473 -43 c4 10 8 9 20 -2 8 -9 12 -22 9 -30 -6 -17 -26 -20
-26 -5 0 6 -7 10 -15 10 -10 0 -15 -10 -15 -27 0 -34 -14 -58 -28 -49 -7 4 -7
18 -1 41 6 19 9 41 8 47 -1 7 -1 22 0 33 2 19 3 18 23 -5 13 -16 22 -21 25
-13z m683 13 c0 -11 -4 -20 -10 -20 -5 0 -10 9 -10 20 0 11 5 20 10 20 6 0 10
-9 10 -20z m46 -48 c-4 -3 -11 -1 -18 6 -8 8 -8 15 3 28 13 16 14 16 17 -5 2
-13 1 -25 -2 -29z m164 23 c0 -8 -4 -15 -10 -15 -5 0 -10 7 -10 15 0 8 5 15
10 15 6 0 10 -7 10 -15z m-385 -65 c3 -5 1 -10 -4 -10 -6 0 -11 5 -11 10 0 6
2 10 4 10 3 0 8 -4 11 -10z m293 -31 c-7 -5 -17 -7 -22 -6 -19 6 -16 22 6 32
17 8 24 7 26 -4 2 -7 -2 -17 -10 -22z m187 21 c3 -5 -1 -10 -10 -10 -9 0 -13
5 -10 10 3 6 8 10 10 10 2 0 7 -4 10 -10z m-445 -40 c0 -5 -4 -10 -10 -10 -5
0 -10 5 -10 10 0 6 5 10 10 10 6 0 10 -4 10 -10z m-570 -29 c0 -5 -9 -11 -19
-14 -17 -4 -18 -2 -8 13 10 18 27 18 27 1z m1000 -2 c6 -11 10 -24 8 -30 -4
-13 -48 19 -48 37 0 21 28 17 40 -7z m-900 -19 c0 -5 -2 -10 -4 -10 -3 0 -8 5
-11 10 -3 6 -1 10 4 10 6 0 11 -4 11 -10z m62 -12 c-7 -7 -12 -8 -12 -2 0 14
12 26 19 19 2 -3 -1 -11 -7 -17z m258 -13 c0 -8 -4 -15 -10 -15 -5 0 -10 7
-10 15 0 8 5 15 10 15 6 0 10 -7 10 -15z m-370 -35 c0 -5 -4 -10 -10 -10 -5 0
-10 5 -10 10 0 6 5 10 10 10 6 0 10 -4 10 -10z m557 -12 c-3 -8 -6 -5 -6 6 -1
11 2 17 5 13 3 -3 4 -12 1 -19z m-614 -58 c4 -15 0 -20 -14 -20 -12 0 -19 7
-19 18 0 37 23 38 33 2z m857 20 c0 -5 -2 -10 -4 -10 -3 0 -8 5 -11 10 -3 6
-1 10 4 10 6 0 11 -4 11 -10z m126 -37 c-10 -10 -19 5 -10 18 6 11 8 11 12 0
2 -7 1 -15 -2 -18z m-823 0 c-7 -2 -19 -2 -25 0 -7 3 -2 5 12 5 14 0 19 -2 13
-5z m-33 -23 c0 -5 -11 -10 -25 -10 -18 0 -25 -5 -25 -19 0 -10 -7 -21 -15
-25 -9 -3 -15 -18 -15 -35 0 -16 -6 -31 -15 -35 -9 -3 -15 0 -15 9 0 8 5 15
10 15 6 0 10 17 10 38 0 33 4 39 38 54 44 20 52 21 52 8z m477 -56 c-3 -3 -12
-4 -19 -1 -8 3 -5 6 6 6 11 1 17 -2 13 -5z m183 -44 c0 -5 -2 -10 -4 -10 -3 0
-8 5 -11 10 -3 6 -1 10 4 10 6 0 11 -4 11 -10z m-813 -62 c-3 -8 -6 -5 -6 6
-1 11 2 17 5 13 3 -3 4 -12 1 -19z m73 10 c0 -7 -5 -20 -10 -28 -8 -12 -10 -9
-10 13 0 15 5 27 10 27 6 0 10 -6 10 -12z m320 -8 c0 -5 -5 -10 -11 -10 -5 0
-7 5 -4 10 3 6 8 10 11 10 2 0 4 -4 4 -10z m214 -24 c-6 -16 -24 -23 -24 -8 0
10 22 33 27 28 2 -2 1 -11 -3 -20z m54 2 c-6 -18 -28 -21 -28 -4 0 9 7 16 16
16 9 0 14 -5 12 -12z m-463 -19 c11 -17 -1 -21 -15 -4 -8 9 -8 15 -2 15 6 0
14 -5 17 -11z m-145 -24 c-7 -9 -15 -13 -17 -11 -6 6 20 36 26 30 2 -2 -2 -10
-9 -19z m274 7 c3 -5 -1 -9 -9 -9 -8 0 -12 4 -9 9 3 4 7 8 9 8 2 0 6 -4 9 -8z
m-204 -42 c0 -5 -5 -10 -11 -10 -5 0 -7 5 -4 10 3 6 8 10 11 10 2 0 4 -4 4
-10z m-110 -25 c0 -14 -4 -25 -10 -25 -5 0 -10 11 -10 25 0 14 5 25 10 25 6 0
10 -11 10 -25z m320 -5 c0 -5 -5 -10 -11 -10 -5 0 -7 5 -4 10 3 6 8 10 11 10
2 0 4 -4 4 -10z m-246 -79 c3 -5 0 -11 -8 -14 -15 -6 -26 1 -26 15 0 11 27 10
34 -1z m349 -12 c-8 -8 -16 -8 -30 0 -16 9 -14 10 12 11 21 0 26 -3 18 -11z
m114 -71 c-3 -8 -6 -5 -6 6 -1 11 2 17 5 13 3 -3 4 -12 1 -19z m-456 -11 c-10
-9 -11 -8 -5 6 3 10 9 15 12 12 3 -3 0 -11 -7 -18z m574 13 c3 -5 1 -10 -4
-10 -6 0 -11 5 -11 10 0 6 2 10 4 10 3 0 8 -4 11 -10z m-425 -40 c-19 -12 -34
-2 -21 14 6 7 9 15 7 18 -1 3 4 -1 13 -9 14 -12 14 -15 1 -23z m-170 20 c0 -5
-7 -7 -15 -4 -8 4 -17 -1 -21 -10 -7 -18 -24 -12 -24 10 0 9 11 14 30 14 17 0
30 -4 30 -10z m960 -21 c0 -5 -4 -9 -10 -9 -5 0 -10 7 -10 16 0 8 5 12 10 9 6
-3 10 -10 10 -16z m-140 -19 c0 -5 -4 -10 -10 -10 -5 0 -10 5 -10 10 0 6 5 10
10 10 6 0 10 -4 10 -10z m-813 -72 c-3 -7 -5 -2 -5 12 0 14 2 19 5 13 2 -7 2
-19 0 -25z m-57 7 c0 -9 -9 -15 -21 -15 -18 0 -19 2 -9 15 7 8 16 15 21 15 5
0 9 -7 9 -15z m587 -21 c-3 -3 -12 -4 -19 -1 -8 3 -5 6 6 6 11 1 17 -2 13 -5z
m393 -9 c0 -8 -4 -15 -10 -15 -5 0 -10 7 -10 15 0 8 5 15 10 15 6 0 10 -7 10
-15z m-450 -84 c0 -5 -7 -11 -15 -15 -15 -5 -20 5 -8 17 9 10 23 9 23 -2z m62
-42 c-19 -32 -32 -38 -32 -14 0 9 7 18 15 21 11 4 13 13 9 28 -6 18 -5 19 9 8
14 -12 14 -16 -1 -43z m298 21 c0 -5 -4 -10 -10 -10 -5 0 -10 5 -10 10 0 6 5
10 10 10 6 0 10 -4 10 -10z m120 -15 c0 -9 -6 -12 -15 -9 -8 4 -12 10 -9 15 8
14 24 10 24 -6z m-160 -38 c0 -5 -7 -6 -16 -3 -9 3 -18 6 -20 6 -2 0 -4 7 -4
15 0 13 3 13 20 3 11 -7 20 -17 20 -21z m-755 3 c3 -5 1 -10 -4 -10 -6 0 -11
5 -11 10 0 6 2 10 4 10 3 0 8 -4 11 -10z m535 6 c0 -3 -4 -8 -10 -11 -5 -3
-10 -1 -10 4 0 6 5 11 10 11 6 0 10 -2 10 -4z m164 -14 c6 -10 -30 -42 -47
-42 -7 1 -5 6 6 14 9 7 17 18 17 25 0 13 16 15 24 3z m-538 -39 c-10 -10 -19
5 -10 18 6 11 8 11 12 0 2 -7 1 -15 -2 -18z m-114 -15 c-6 -6 -16 -7 -22 -3
-9 6 -9 9 1 16 17 10 34 0 21 -13z m385 6 c-3 -3 -12 -4 -19 -1 -8 3 -5 6 6 6
11 1 17 -2 13 -5z m-236 -31 c-12 -20 -14 -14 -5 12 4 9 9 14 11 11 3 -2 0
-13 -6 -23z m59 -17 c0 -3 -4 -8 -10 -11 -5 -3 -10 -1 -10 4 0 6 5 11 10 11 6
0 10 -2 10 -4z"/>
<path d="M3200 3108 c0 -9 -6 -18 -12 -21 -10 -3 -10 -7 -1 -17 9 -10 13 -7
19 14 3 15 4 30 0 33 -3 4 -6 -1 -6 -9z"/>
<path d="M5360 3130 c0 -5 5 -10 11 -10 5 0 7 5 4 10 -3 6 -8 10 -11 10 -2 0
-4 -4 -4 -10z"/>
<path d="M5360 2995 c0 -8 2 -15 4 -15 2 0 6 7 10 15 3 8 1 15 -4 15 -6 0 -10
-7 -10 -15z"/>
<path d="M6374 3767 c-6 -7 -9 -18 -6 -25 2 -7 -1 -19 -7 -26 -11 -14 -5 -46
8 -46 9 0 31 68 31 94 0 19 -11 20 -26 3z"/>
<path d="M6377 3533 c-3 -5 1 -14 9 -21 12 -11 14 -9 14 8 0 20 -14 27 -23 13z"/>
<path d="M6307 3333 c-9 -16 -7 -142 2 -148 11 -6 26 56 19 77 -3 7 1 24 8 37
7 14 11 28 8 33 -6 10 -31 11 -37 1z"/>
<path d="M6382 3288 c-6 -7 -12 -33 -13 -58 -3 -35 0 -45 13 -48 13 -3 16 7
16 57 0 34 -1 61 -3 61 -1 0 -7 -6 -13 -12z"/>
<path d="M6341 3134 c-1 -5 5 -18 12 -28 16 -22 47 -11 46 18 0 11 -3 15 -6 9
-2 -7 -13 -13 -23 -13 -10 0 -21 6 -23 13 -3 6 -6 7 -6 1z"/>
<path d="M3870 3120 c-8 -5 -10 -10 -5 -10 6 0 17 5 25 10 8 5 11 10 5 10 -5
0 -17 -5 -25 -10z"/>
<path d="M6287 3099 c-20 -22 -15 -59 8 -59 21 0 28 19 15 35 -9 11 -9 15 -1
15 6 0 11 7 11 15 0 21 -12 19 -33 -6z"/>
<path d="M6340 3063 c0 -10 -3 -29 -7 -42 -5 -19 -2 -22 13 -19 10 2 19 9 18
16 -1 6 -2 23 -2 37 -2 28 -22 35 -22 8z"/>
<path d="M6388 3030 c-7 -24 -3 -38 8 -28 3 4 4 17 2 30 l-3 23 -7 -25z"/>
<path d="M1650 3031 c0 -6 -14 -11 -32 -13 -32 -3 -56 -32 -73 -85 -5 -18 -3
-22 9 -17 9 3 16 1 16 -5 0 -20 20 -12 29 12 8 20 10 21 17 3 5 -12 2 -21 -9
-27 -13 -8 -14 -15 -1 -61 7 -29 14 -77 14 -105 0 -29 4 -53 9 -53 5 0 14 -15
22 -32 7 -18 23 -47 36 -64 13 -17 23 -36 23 -42 0 -19 103 -111 132 -117 61
-14 49 25 -13 45 -49 15 -96 59 -106 99 -3 14 -20 53 -37 86 -29 57 -30 67
-31 177 0 104 2 119 22 146 21 28 21 31 4 46 -20 18 -31 20 -31 7z"/>
<path d="M6314 2966 c-13 -13 -2 -43 38 -99 15 -21 24 -45 21 -53 -3 -8 0 -14
5 -14 13 0 19 23 20 78 1 30 -3 42 -14 42 -17 0 -18 -12 -2 -28 21 -21 -10
-14 -34 7 -15 14 -19 27 -14 45 7 28 -3 39 -20 22z"/>
<path d="M6370 2960 c0 -5 7 -10 15 -10 8 0 15 5 15 10 0 6 -7 10 -15 10 -8 0
-15 -4 -15 -10z"/>
<path d="M1544 2885 c-4 -8 -3 -27 1 -42 l6 -26 21 20 c16 17 18 24 9 42 -14
25 -29 27 -37 6z"/>
<path d="M6364 2766 c-9 -22 2 -46 21 -46 12 0 15 8 13 27 -3 30 -25 42 -34
19z"/>
<path d="M3340 2592 c-37 -40 -84 -60 -95 -42 -10 16 -35 12 -35 -6 0 -18 58
-76 69 -69 11 6 41 -33 41 -55 0 -11 -9 -24 -20 -30 -11 -6 -20 -9 -20 -6 0 2
-18 -13 -41 -35 -40 -38 -56 -49 -44 -29 3 6 -3 10 -14 10 -11 0 -23 -4 -26
-10 -3 -5 -19 -10 -34 -10 -28 0 -71 -35 -71 -59 0 -7 -4 -9 -10 -6 -5 3 -10
1 -10 -5 0 -7 -6 -10 -14 -7 -7 3 -18 1 -24 -5 -8 -8 -16 -6 -27 6 -21 21 -21
21 -55 -14 -31 -31 -40 -75 -18 -82 8 -3 11 -21 10 -49 -4 -71 9 -79 56 -37
64 58 72 60 149 44 39 -8 73 -10 79 -5 6 5 15 4 22 -3 9 -9 18 -9 30 -2 9 5
42 8 72 6 65 -5 55 -5 243 -2 82 1 151 0 153 -3 3 -3 18 -1 33 4 32 11 81 -3
81 -24 0 -12 74 -87 87 -87 3 0 2 41 -2 90 -7 83 -6 90 11 90 14 0 15 3 6 12
-7 7 -12 24 -12 39 0 33 -20 49 -34 27 -8 -13 -12 -11 -25 15 -9 17 -27 38
-41 46 -54 33 -100 86 -111 124 -12 46 -5 87 16 87 13 0 32 37 23 45 -6 6
-102 -29 -106 -38 -9 -19 -36 -38 -48 -33 -9 3 -17 -8 -24 -37 -15 -59 -18
-65 -19 -40 -1 12 -6 25 -12 29 -6 3 -9 20 -6 38 3 17 3 25 0 19 -7 -18 -23
-16 -23 2 0 24 -31 31 -46 10 -9 -12 -26 -18 -51 -18 -35 0 -38 2 -38 29 0 44
46 63 128 51 32 -5 38 -3 33 9 -3 9 -6 17 -6 20 0 12 -65 34 -101 34 -36 0
-48 -6 -79 -38z m161 -308 c10 -13 28 -14 104 -10 83 6 93 4 110 -14 10 -11
24 -20 32 -20 21 0 93 -43 93 -56 0 -21 -33 -25 -124 -18 -71 5 -87 4 -81 -6
6 -10 0 -11 -26 -6 -19 4 -51 7 -71 6 -21 0 -38 4 -38 9 0 26 -141 37 -220 16
-103 -28 -208 -32 -216 -10 -3 8 10 34 32 60 32 40 41 45 65 40 15 -3 30 -1
34 4 4 8 12 8 25 1 11 -6 36 -6 63 -1 24 4 58 6 74 4 16 -3 44 0 63 5 51 15
66 14 81 -4z m-511 -109 c0 -12 -28 -35 -44 -35 -11 0 -6 19 10 34 19 20 34
20 34 1z"/>
<path d="M1911 2592 c-14 -30 0 -52 35 -52 31 0 31 22 0 53 l-24 24 -11 -25z"/>
<path d="M2057 2343 c-13 -13 -7 -31 12 -36 20 -5 36 17 25 34 -6 11 -28 12
-37 2z"/>
<path d="M1820 2308 c0 -7 7 -24 16 -36 17 -25 74 -31 92 -9 16 18 2 34 -38
41 -19 4 -43 10 -52 12 -11 3 -18 0 -18 -8z"/>
<path d="M2115 2270 c-4 -6 -2 -17 4 -23 6 -6 11 -21 11 -33 0 -12 7 -27 15
-34 8 -7 15 -20 15 -30 0 -10 7 -20 15 -24 12 -4 15 4 15 42 -1 40 -6 52 -34
80 -23 23 -36 30 -41 22z"/>
<path d="M1890 2206 c0 -2 7 -7 16 -10 8 -3 12 -2 9 4 -6 10 -25 14 -25 6z"/>
<path d="M2184 2066 c-3 -8 -1 -23 5 -34 6 -11 7 -22 4 -26 -4 -4 -7 -19 -8
-34 0 -25 -3 -27 -40 -27 -22 0 -46 -4 -52 -8 -8 -5 -13 -3 -13 5 -1 8 -7 5
-16 -7 -14 -19 -16 -19 -25 -2 -6 9 -15 17 -22 17 -21 1 -48 27 -52 50 -6 33
-10 35 -73 22 -31 -7 -79 -16 -107 -22 -82 -16 -165 -44 -165 -56 0 -7 26 -22
58 -34 63 -25 154 -71 162 -82 3 -4 28 -16 55 -28 45 -19 64 -35 65 -51 0 -9
-53 2 -68 14 -19 15 -92 -39 -92 -70 0 -16 -8 -27 -27 -34 -43 -16 -73 -58
-60 -86 12 -27 2 -57 -17 -50 -11 5 -13 0 -6 -24 7 -23 4 -37 -13 -64 -25 -39
-33 -42 -58 -19 -22 20 -39 10 -39 -22 0 -13 -9 -33 -20 -44 -22 -22 -26 -56
-7 -63 23 -9 -7 -26 -50 -29 -24 -2 -45 -9 -48 -16 -3 -7 -9 -11 -14 -8 -22
14 -209 -191 -366 -399 -41 -55 -79 -105 -85 -112 -5 -7 -10 -15 -10 -18 0 -3
-17 -31 -38 -63 -44 -64 -56 -92 -42 -92 6 0 10 4 10 8 0 4 18 27 40 51 22 23
40 50 40 58 0 9 6 13 14 10 20 -8 28 4 14 20 -8 11 -1 23 35 59 38 37 50 44
72 38 21 -5 27 -2 32 15 3 11 12 21 20 21 8 0 21 7 29 15 8 8 22 11 31 8 13
-5 15 -2 11 14 -4 16 -2 19 13 16 13 -4 19 0 19 11 0 9 8 16 20 16 11 0 20 6
20 13 0 7 16 19 35 26 19 7 35 19 35 26 0 8 10 25 23 38 24 26 133 87 156 87
8 0 27 11 41 25 25 24 28 25 120 17 52 -5 115 -7 140 -5 47 5 126 -23 150 -52
10 -13 9 -15 -10 -15 -13 0 -29 -8 -36 -17 -12 -17 -13 -16 -14 5 0 28 -39 31
-47 3 -2 -10 -15 -23 -28 -29 -16 -8 -24 -21 -27 -49 -3 -21 -1 -43 4 -49 4
-6 6 -18 3 -26 -4 -11 2 -18 19 -22 27 -7 34 -20 16 -31 -12 -8 -13 -25 -1
-44 15 -24 41 6 41 45 0 39 17 45 29 12 5 -15 3 -37 -5 -62 -8 -21 -11 -54 -8
-75 3 -20 0 -53 -8 -76 -13 -39 -14 -77 -2 -142 8 -40 31 -43 36 -6 2 18 10
29 23 32 24 4 35 19 28 38 -6 16 -33 17 -33 1 0 -9 -3 -9 -12 0 -8 8 -8 15 2
26 7 9 10 22 7 30 -3 8 -3 17 0 20 9 9 43 -14 43 -29 0 -11 9 -14 33 -13 29 3
32 0 32 -24 -1 -31 -1 -32 24 -18 25 13 68 -8 81 -40 6 -14 28 -37 50 -50 21
-13 37 -27 34 -31 -2 -4 2 -11 9 -16 7 -4 17 -16 20 -27 6 -15 3 -17 -12 -13
-15 4 -21 -1 -23 -20 -3 -22 -9 -26 -45 -29 -23 -2 -45 1 -48 6 -11 18 -35 11
-35 -10 0 -11 6 -20 13 -20 6 0 18 -13 25 -28 11 -25 17 -28 62 -29 71 -1 141
-13 135 -23 -6 -10 21 -21 39 -14 14 5 30 -21 21 -35 -2 -5 -33 -9 -67 -9
-159 -4 -304 -29 -344 -59 -21 -16 -44 -23 -75 -23 -27 0 -56 -8 -74 -20 -32
-21 -65 -26 -65 -10 0 15 -37 12 -43 -4 -3 -8 -21 -16 -39 -18 -25 -2 -33 -8
-33 -23 0 -19 8 -20 192 -23 184 -2 193 -2 203 18 14 25 35 25 85 0 38 -20 59
-20 952 -20 l913 0 0 52 c0 28 -13 104 -29 167 -16 64 -39 163 -51 221 -12 58
-28 112 -35 120 -7 8 -27 51 -44 95 -17 44 -43 99 -58 121 -24 35 -87 96 -127
122 -28 18 -76 85 -76 107 0 13 7 36 17 52 10 18 14 39 10 54 -7 24 -90 119
-105 119 -14 0 -42 -35 -42 -53 0 -22 -12 -21 -32 3 -16 18 -16 20 11 40 16
11 36 20 45 20 10 0 21 19 31 58 26 88 37 105 86 129 79 37 168 137 272 305
21 34 22 58 2 58 -8 0 -15 -6 -15 -13 0 -7 -6 -22 -14 -32 -14 -19 -15 -19
-34 -1 -12 10 -18 24 -15 32 3 8 0 14 -6 14 -6 0 -11 7 -11 15 0 28 -30 15
-55 -25 -16 -25 -33 -40 -45 -40 -17 0 -20 -7 -20 -48 0 -26 5 -53 12 -60 9
-9 5 -12 -20 -12 -18 0 -32 -4 -32 -10 0 -5 -7 -10 -15 -10 -8 0 -20 -9 -27
-20 -7 -11 -30 -33 -52 -47 l-38 -27 -30 33 c-28 32 -30 32 -49 15 -19 -17
-21 -17 -49 5 l-30 22 -38 -22 c-43 -25 -72 -21 -72 10 0 11 -6 24 -14 28 -7
4 -19 19 -25 31 -10 19 -18 23 -39 18 -15 -4 -34 -7 -42 -6 -8 0 -30 0 -47 0
-36 1 -38 2 -22 32 9 17 8 19 -8 16 -10 -2 -18 -10 -18 -19 0 -18 -28 -49 -44
-49 -13 0 -30 31 -24 47 2 6 -1 14 -7 18 -7 4 -14 -1 -17 -13 -4 -18 -11 -20
-61 -15 -31 2 -60 9 -63 15 -3 5 -27 10 -52 10 -36 0 -47 4 -52 18 -7 23 -43
36 -58 21 -15 -15 -23 -14 -41 4 -8 8 -23 16 -34 18 -11 2 -28 9 -37 17 -14
11 -20 11 -37 1 -11 -7 -21 -11 -21 -9 -29 60 -43 77 -76 91 -21 10 -45 17
-53 17 -29 0 -48 33 -39 67 8 26 7 31 -5 26 -8 -3 -14 0 -14 6 0 6 -9 11 -20
11 -11 0 -20 7 -20 15 0 8 -6 15 -13 15 -8 0 -20 18 -27 40 -10 32 -18 40 -37
40 -13 0 -26 -6 -29 -14z m-87 -152 c-3 -3 -12 -4 -19 -1 -8 3 -5 6 6 6 11 1
17 -2 13 -5z m223 -84 c0 -5 -4 -10 -10 -10 -5 0 -10 5 -10 10 0 6 5 10 10 10
6 0 10 -4 10 -10z m-550 -263 c0 -5 -4 -5 -10 -2 -5 3 -10 14 -10 23 0 15 2
15 10 2 5 -8 10 -19 10 -23z m-24 -121 c18 -18 17 -36 -1 -60 -19 -25 -35 -12
-35 28 0 46 11 56 36 32z m1764 -212 c0 -2 -7 -4 -15 -4 -8 0 -15 4 -15 10 0
5 7 7 15 4 8 -4 15 -8 15 -10z m-33 -224 c-8 -25 -17 -38 -21 -31 -8 13 1 49
18 67 18 19 18 9 3 -36z m-977 -820 c0 -5 -7 -10 -15 -10 -8 0 -15 5 -15 10 0
6 7 10 15 10 8 0 15 -4 15 -10z"/>
<path d="M2020 1979 c0 -5 5 -7 10 -4 6 3 10 8 10 11 0 2 -4 4 -10 4 -5 0 -10
-5 -10 -11z"/>
<path d="M3353 1935 c-11 -7 -35 -15 -54 -17 l-34 -4 26 -11 c27 -12 69 -72
69 -100 0 -22 32 -44 47 -32 16 14 92 14 106 0 15 -15 37 5 37 34 0 15 15 36
39 57 40 35 44 58 7 58 -12 0 -31 7 -43 15 -12 8 -24 11 -27 6 -5 -8 -31 -8
-122 4 -18 2 -40 -3 -51 -10z"/>
<path d="M3882 1920 c-7 -11 -19 -20 -27 -20 -8 0 -19 -9 -25 -20 -6 -12 -7
-20 -1 -20 5 0 11 6 14 13 3 9 13 8 40 -5 l37 -18 0 45 c0 49 -16 60 -38 25z"/>
<path d="M1600 1833 c0 -30 9 -27 15 6 2 11 0 21 -6 21 -5 0 -9 -12 -9 -27z"/>
<path d="M2897 1822 c-32 -34 -38 -68 -8 -53 25 14 65 81 48 81 -8 0 -25 -13
-40 -28z"/>
<path d="M2962 1787 c-6 -7 -8 -27 -3 -47 9 -44 35 -48 37 -5 3 58 -11 80 -34
52z"/>
<path d="M3280 1635 c0 -8 5 -15 10 -15 6 0 10 7 10 15 0 8 -4 15 -10 15 -5 0
-10 -7 -10 -15z"/>
<path d="M1531 1404 c0 -11 3 -14 6 -6 3 7 2 16 -1 19 -3 4 -6 -2 -5 -13z"/>
<path d="M6126 903 c-11 -11 -6 -23 9 -23 8 0 15 4 15 9 0 13 -16 22 -24 14z"/>
<path d="M5841 864 c0 -11 3 -14 6 -6 3 7 2 16 -1 19 -3 4 -6 -2 -5 -13z"/>
<path d="M1884 736 c-3 -15 -17 -29 -35 -35 -34 -12 -37 -27 -8 -36 16 -5 19
-12 15 -30 -3 -12 2 -37 11 -55 l16 -33 17 23 c17 23 17 24 -4 42 -13 12 -17
21 -10 24 6 3 10 21 8 42 -2 21 4 47 12 60 13 19 13 22 -1 22 -8 0 -17 -11
-21 -24z"/>
<path d="M1761 613 l2 -68 7 50 c4 28 10 58 14 68 6 12 4 17 -8 17 -13 0 -16
-12 -15 -67z"/>
<path d="M1725 550 c4 -6 11 -8 16 -5 14 9 11 15 -7 15 -8 0 -12 -5 -9 -10z"/>
<path d="M871 523 c0 -7 -12 -37 -26 -67 -27 -59 -30 -76 -15 -76 6 0 10 7 10
15 0 8 9 35 21 60 11 24 19 52 16 62 -3 10 -5 13 -6 6z"/>
<path d="M1740 480 c-9 -6 -10 -10 -3 -10 6 0 15 5 18 10 8 12 4 12 -15 0z"/>
<path d="M1685 399 c-33 -4 -82 -10 -110 -14 -27 -3 -60 -7 -72 -9 -13 -2 -23
2 -23 8 0 6 -6 2 -12 -9 -17 -30 -49 -55 -70 -55 -20 0 -23 -16 -8 -40 5 -9 5
-19 -2 -27 -8 -10 -6 -13 10 -13 11 0 23 -7 26 -16 5 -13 9 -14 21 -4 8 7 13
15 11 19 -2 3 7 12 20 18 22 10 24 10 19 -8 -7 -22 20 -28 28 -5 3 7 25 16 49
19 73 10 208 90 208 123 0 10 -27 28 -33 22 -1 0 -29 -5 -62 -9z"/>
<path d="M2051 361 c27 -31 39 -38 59 -33 33 6 32 5 21 35 -9 23 -15 26 -41
21 -19 -4 -30 -2 -30 5 0 6 -10 11 -21 11 -20 0 -19 -3 12 -39z"/>
<path d="M793 339 c-12 -19 -31 -43 -42 -53 -17 -16 -18 -20 -5 -44 8 -15 14
-33 14 -39 0 -15 16 -17 25 -4 3 5 -2 17 -11 25 -9 9 -11 16 -4 16 6 0 9 4 6
9 -6 9 22 71 37 82 5 4 7 15 5 25 -3 15 -7 12 -25 -17z"/>
<path d="M1308 333 c7 -3 16 -2 19 1 4 3 -2 6 -13 5 -11 0 -14 -3 -6 -6z"/>
<path d="M1950 316 c-9 -23 -13 -26 -25 -16 -19 16 -41 0 -48 -35 -3 -20 0
-25 17 -25 12 0 27 5 34 12 19 19 134 10 155 -13 14 -15 31 -19 78 -19 58 0
59 1 48 21 -8 15 -18 20 -35 16 -13 -2 -29 2 -36 10 -6 8 -18 11 -25 9 -8 -3
-27 1 -43 9 -16 8 -35 12 -43 9 -9 -3 -26 6 -40 22 l-26 28 -11 -28z"/>
<path d="M866 197 c-5 -10 -3 -23 4 -32 13 -15 30 -12 30 6 0 6 -4 8 -9 4 -5
-3 -11 5 -14 17 -3 20 -4 21 -11 5z"/>
<path d="M705 164 c-8 -9 -15 -20 -15 -27 0 -6 -8 -20 -19 -31 -10 -12 -21
-40 -25 -64 l-6 -43 78 3 c66 2 77 5 65 16 -18 18 -17 42 2 42 8 0 15 -5 15
-11 0 -5 5 -7 11 -3 6 3 8 17 4 31 -3 14 -1 31 6 40 10 12 10 16 -2 24 -10 6
-15 3 -17 -14 -5 -28 -20 -47 -38 -47 -21 0 -17 28 6 40 28 15 25 24 -15 43
-31 15 -36 15 -50 1z"/>
<path d="M795 170 c-3 -5 1 -10 10 -10 9 0 13 5 10 10 -3 6 -8 10 -10 10 -2 0
-7 -4 -10 -10z"/>
<path d="M1730 120 c0 -5 5 -10 11 -10 5 0 7 5 4 10 -3 6 -8 10 -11 10 -2 0
-4 -4 -4 -10z"/>
<path d="M1660 99 c0 -6 6 -17 14 -24 11 -12 15 -10 24 11 11 22 9 24 -13 24
-14 0 -25 -5 -25 -11z"/>
<path d="M1065 70 c4 -6 11 -8 16 -5 14 9 11 15 -7 15 -8 0 -12 -5 -9 -10z"/>
<path d="M927 45 c-8 -18 11 -31 25 -17 11 11 3 32 -12 32 -4 0 -10 -7 -13
-15z"/>
<path d="M889 28 c-1 -18 -2 -19 -6 -5 -5 20 -23 13 -23 -9 0 -8 10 -14 25
-14 20 0 25 5 25 25 0 31 -20 33 -21 3z"/>
</g>
</svg>
